<svg width="145" height="49" viewBox="0 0 145 49" fill="none" xmlns="http://www.w3.org/2000/svg">
<g clip-path="url(#clip0)">
<path d="M0.660556 45.5767C1.33722 45.6733 1.91722 45.5444 2.40056 45.19C2.91611 44.8678 3.20611 44.4328 3.27056 43.885C3.36722 43.1439 3.625 42.6767 4.04389 42.4833C4.26945 42.3544 7.66889 42.29 14.2422 42.29C20.8478 42.2578 24.2956 42.3061 24.5856 42.435C24.8756 42.5639 25.0528 42.7089 25.1172 42.87C25.2139 43.0633 25.2622 43.4339 25.2622 43.9817C25.2622 44.8194 25.4072 45.3028 25.6972 45.4317C26.0194 45.5928 26.6156 45.4639 27.4856 45.045C27.5822 45.0128 27.7111 44.9644 27.8722 44.9C28.3556 44.6744 28.6294 44.3522 28.6939 43.9333C28.7583 43.5467 28.7422 42.2578 28.6456 40.0667C28.6456 39.2933 28.6294 38.665 28.5972 38.1817C28.5328 36.5061 28.5006 31.8339 28.5006 24.165C28.5006 23.4883 28.5006 22.5539 28.5006 21.3617C28.5006 17.8172 28.5167 15.5617 28.5489 14.595C28.5489 13.2739 28.6133 12.42 28.7422 12.0333C28.8067 11.7433 29 11.5178 29.3222 11.3567C29.4511 11.2922 29.5478 11.2439 29.6122 11.2117C30.16 10.9217 30.4178 10.6961 30.3856 10.535C30.3856 10.3739 30.1117 10.0356 29.5639 9.52C27.8561 7.87667 26.7606 7.345 26.2772 7.925C26.1806 8.02167 26.0678 8.15056 25.9389 8.31167C25.3589 8.95611 24.8272 9.34278 24.3439 9.47167C23.8606 9.56833 22.4428 9.61667 20.0906 9.61667C19.5428 9.61667 19.1078 9.61667 18.7856 9.61667C18.56 9.61667 18.2378 9.61667 17.8189 9.61667C15.66 9.61667 14.3067 9.58444 13.7589 9.52C12.9856 9.45555 12.615 9.24611 12.6472 8.89166C12.6472 8.66611 12.9372 8.10222 13.5172 7.2C13.6461 7.00667 13.7428 6.86167 13.8072 6.765C14.5483 5.70167 15.1122 4.86389 15.4989 4.25167C15.8211 3.73611 16.1272 3.39778 16.4172 3.23667C16.9006 2.94667 16.9972 2.705 16.7072 2.51167C16.4172 2.28611 15.6117 2.02833 14.2906 1.73833C14.2261 1.73833 14.1294 1.72222 14.0006 1.69C12.9372 1.43222 12.3089 1.35166 12.1156 1.44833C11.9222 1.51278 11.7933 1.89944 11.7289 2.60833C11.7289 2.67278 11.7289 2.72111 11.7289 2.75333C11.6 4.01 11.4067 5.28278 11.1489 6.57167C10.9233 7.82833 10.7139 8.61778 10.5206 8.94C10.1339 9.55222 8.89333 9.82611 6.79889 9.76166C4.73667 9.665 2.98056 9.27833 1.53056 8.60167C1.40167 8.53722 1.20833 8.45667 0.950556 8.36C0.273889 8.03778 -0.0966664 7.87667 -0.161111 7.87667C-0.225556 7.87667 -0.209444 8.39222 -0.112778 9.42333C-0.0483334 9.97111 -2.36763e-07 10.4383 0.032222 10.825C0.225555 12.565 0.306111 17.5111 0.273889 25.6633C0.241667 33.7189 0.128889 39.3094 -0.0644441 42.435C-0.161111 43.8206 -0.177222 44.6744 -0.112778 44.9967C-0.0161111 45.3511 0.241667 45.5444 0.660556 45.5767ZM14.3389 40.985C7.60444 40.985 4.10833 40.8883 3.85056 40.695C3.52833 40.5017 3.31889 39.1483 3.22222 36.635C3.12556 34.1217 3.23833 32.6556 3.56056 32.2367V32.1883C3.75389 31.9306 4.205 31.7856 4.91389 31.7533C5.655 31.6889 8.10389 31.6567 12.2606 31.6567C13.1628 31.6567 13.8556 31.6567 14.3389 31.6567C14.8222 31.6567 15.515 31.6567 16.4172 31.6567C20.5739 31.6567 23.0067 31.6889 23.7156 31.7533C24.4567 31.7856 24.9239 31.9306 25.1172 32.1883L25.1656 32.285C25.4556 32.6717 25.5522 34.1217 25.4556 36.635C25.3589 39.1483 25.1494 40.5017 24.8272 40.695C24.6017 40.8883 21.1056 40.985 14.3389 40.985ZM14.3389 30.3033C7.73333 30.3033 4.30167 30.255 4.04389 30.1583C3.68944 30.0294 3.48 29.7878 3.41556 29.4333C3.35111 29.0467 3.30278 27.8867 3.27056 25.9533C3.27056 23.9556 3.30278 22.7633 3.36722 22.3767C3.39944 21.9256 3.56056 21.6194 3.85056 21.4583C4.10833 21.265 7.60444 21.1683 14.3389 21.1683C21.1056 21.1683 24.6017 21.265 24.8272 21.4583C25.3428 21.7806 25.5683 23.2628 25.5039 25.905C25.4394 28.515 25.1494 29.9328 24.6339 30.1583C24.3439 30.255 20.9122 30.3033 14.3389 30.3033ZM24.6822 19.7183C24.4567 19.8472 21.0089 19.8956 14.3389 19.8633C7.66889 19.8633 4.22111 19.815 3.99556 19.7183C3.67333 19.5572 3.48 19.2994 3.41556 18.945C3.35111 18.5583 3.31889 17.3822 3.31889 15.4167C3.31889 15.03 3.30278 14.5306 3.27056 13.9183C3.23833 12.7906 3.30278 12.0817 3.46389 11.7917C3.72167 11.3728 4.36611 11.115 5.39722 11.0183C6.13833 10.9539 7.87833 10.9378 10.6172 10.97C12.1639 10.97 13.4044 10.97 14.3389 10.97C15.2733 10.97 16.5139 10.97 18.0606 10.97C20.7994 10.9378 22.5394 10.9539 23.2806 11.0183C24.3117 11.115 24.9561 11.3728 25.2139 11.7917C25.375 12.0817 25.4394 12.7906 25.4072 13.9183C25.375 14.5306 25.3589 15.03 25.3589 15.4167C25.3589 17.3822 25.3267 18.5583 25.2622 18.945C25.23 19.2994 25.0367 19.5572 24.6822 19.7183ZM42.5172 45.5283C43.5806 46.0761 44.7567 45.7378 46.0456 44.5133C47.27 43.3856 48.2206 41.8711 48.8972 39.97C49.6383 37.9722 49.7994 36.2 49.3806 34.6533C49.2839 34.3311 49.1389 34.2183 48.9456 34.315C48.7522 34.3794 48.6233 34.5889 48.5589 34.9433C48.3978 36.2967 47.8822 37.6339 47.0122 38.955C46.1744 40.2761 45.1594 41.2911 43.9672 42C42.9039 42.6767 42.2756 43.1439 42.0822 43.4017C41.8244 43.8206 41.7278 44.2233 41.7922 44.61C41.8567 44.9967 42.0983 45.3028 42.5172 45.5283ZM81.1356 45.3833C82.1989 45.8667 82.8594 45.7056 83.1172 44.9C83.375 44.1267 83.23 43.0794 82.6822 41.7583C82.07 40.3728 81.1839 39.1644 80.0239 38.1333C78.9283 37.1667 77.72 36.2967 76.3989 35.5233C75.1744 34.8144 74.3044 34.4439 73.7889 34.4117C73.2411 34.3794 73.3861 34.7983 74.2239 35.6683C77.3817 38.9228 79.4761 41.9194 80.5072 44.6583C80.6683 45.0128 80.8778 45.2544 81.1356 45.3833ZM57.7422 45.1417C58.7411 45.625 59.45 45.2061 59.8689 43.885C60.2878 42.5639 60.175 41.0978 59.5306 39.4867C59.1117 38.4556 58.5317 37.4567 57.7906 36.49C57.1139 35.5878 56.55 35.0561 56.0989 34.895C55.68 34.7339 55.6156 35.1044 55.9056 36.0067C56.6467 38.3267 57.0333 40.6628 57.0656 43.015C57.0656 43.885 57.0978 44.4167 57.1622 44.61C57.2267 44.8033 57.42 44.9806 57.7422 45.1417ZM68.9072 44.9967C69.6806 45.4478 70.2928 45.2706 70.7439 44.465C71.195 43.6594 71.2594 42.6444 70.9372 41.42C70.615 40.26 69.9222 39.0517 68.8589 37.795C67.7956 36.5061 66.6033 35.4589 65.2822 34.6533C64.8956 34.3956 64.6861 34.3956 64.6539 34.6533C64.6217 34.8789 64.7667 35.2656 65.0889 35.8133C65.8622 37.07 66.5872 38.5683 67.2639 40.3083C67.9728 42.0483 68.3272 43.2567 68.3272 43.9333C68.3272 44.4167 68.5206 44.7711 68.9072 44.9967ZM41.6956 35.5717C41.7922 35.6683 41.8889 35.7006 41.9856 35.6683C42.0822 35.6361 42.3722 35.5072 42.8556 35.2817C42.92 35.2494 42.9844 35.2172 43.0489 35.185C50.5244 31.415 56.1956 25.3894 60.0622 17.1083C60.9 15.2717 61.48 14.6111 61.8022 15.1267C61.8667 15.1911 62.6722 15.2233 64.2189 15.2233C66.0233 15.2233 67.0544 15.3683 67.3122 15.6583C67.6022 15.9483 67.5378 16.8828 67.1189 18.4617C66.3133 21.555 64.9439 24.2294 63.0106 26.485C61.1094 28.7406 58.4833 30.7544 55.1322 32.5267C54.4878 32.8811 54.1172 33.1228 54.0206 33.2517C53.9239 33.3483 53.9722 33.4933 54.1656 33.6867C54.3267 33.8478 54.5683 33.88 54.8906 33.7833C55.245 33.6544 56.0506 33.2839 57.3072 32.6717C60.5617 31.0606 63.1233 29.2883 64.9922 27.355C66.8611 25.4217 68.3433 23.005 69.4389 20.105C69.9222 18.8161 70.2767 18.1556 70.5022 18.1233C70.76 18.0911 71.05 18.6711 71.3722 19.8633C72.9189 25.6956 75.6094 30.0294 79.4439 32.865C79.5083 32.8972 79.5889 32.9617 79.6856 33.0583C80.33 33.5094 80.7167 33.7511 80.8456 33.7833C80.9744 33.8156 81.1356 33.6544 81.3289 33.3L81.3772 33.2033C81.5706 32.8811 81.8767 32.5267 82.2956 32.14C82.7467 31.7533 83.085 31.5278 83.3106 31.4633C83.7617 31.3022 83.9389 31.1572 83.8422 31.0283C83.7778 30.8672 83.4394 30.6578 82.8272 30.4C77.5428 27.8544 73.9339 23.7139 72.0006 17.9783C71.7428 17.1728 71.5978 16.6572 71.5656 16.4317C71.5333 16.2061 71.5817 15.9806 71.7106 15.755C71.8394 15.5294 72.1456 15.4006 72.6289 15.3683C73.1444 15.3039 74.82 15.2556 77.6556 15.2233C80.2333 15.1911 81.8606 15.1428 82.5372 15.0783C83.4394 14.9817 83.8422 14.7722 83.7456 14.45C83.6811 14.1922 83.1817 13.6283 82.2472 12.7583C81.1517 11.7272 80.3944 11.1956 79.9756 11.1633C79.5889 11.1311 79.1378 11.5178 78.6222 12.3233C78.1389 13.0644 77.7039 13.5156 77.3172 13.6767C76.9306 13.8056 75.9639 13.87 74.4172 13.87C74.2239 13.87 73.9661 13.87 73.6439 13.87C72.6128 13.87 71.9522 13.8217 71.6622 13.725C71.3078 13.5639 71.0983 13.1772 71.0339 12.565C70.9694 12.1461 70.9856 11.115 71.0822 9.47167C71.1144 8.92389 71.1306 8.48889 71.1306 8.16667C71.195 6.36222 71.2594 5.23444 71.3239 4.78333C71.4206 4.33222 71.63 3.97778 71.9522 3.72C72.2744 3.39778 72.2422 3.15611 71.8556 2.995C71.5011 2.83389 70.6633 2.67278 69.3422 2.51167C69.2456 2.51167 69.1328 2.49556 69.0039 2.46333C68.3594 2.39889 67.9889 2.39889 67.8922 2.46333C67.8278 2.52778 67.8117 2.80167 67.8439 3.285C67.8761 3.38167 67.8922 3.46222 67.8922 3.52666C68.2144 6.42667 68.295 9.13333 68.1339 11.6467C68.0694 12.71 67.8761 13.3544 67.5539 13.58C67.2639 13.7733 66.3617 13.87 64.8472 13.87C63.2683 13.87 62.35 13.7572 62.0922 13.5317C61.8344 13.3061 61.8828 12.6456 62.2372 11.55C62.6883 10.1967 63.1878 9.52 63.7356 9.52C64.8956 9.52 64.8311 8.84333 63.5422 7.49C62.7044 6.62 62.1244 6.15278 61.8022 6.08833C61.5122 5.99167 61.0933 6.21722 60.5456 6.765L60.4489 6.86166C59.9333 7.37722 59.5144 7.68333 59.1922 7.78C58.87 7.84444 57.9517 7.87667 56.4372 7.87667C56.2761 7.87667 56.1472 7.87667 56.0506 7.87667C54.3428 7.87667 53.3278 7.84444 53.0056 7.78C52.7156 7.71556 52.5706 7.47389 52.5706 7.055C52.5706 6.82944 52.6994 6.37833 52.9572 5.70167C53.215 5.025 53.4567 4.54167 53.6822 4.25167C53.94 3.89722 54.2622 3.63944 54.6489 3.47833C55.0678 3.31722 55.1161 3.10778 54.7939 2.85C54.5039 2.59222 53.7789 2.23778 52.6189 1.78667C52.5222 1.75444 52.3611 1.69 52.1356 1.59333C51.33 1.30333 50.8628 1.15833 50.7339 1.15833C50.5728 1.19055 50.46 1.4 50.3956 1.78667V1.88333C50.0733 4.33222 49.0422 7.37722 47.3022 11.0183C45.5944 14.6594 43.79 17.6239 41.8889 19.9117C41.47 20.3628 41.2122 20.6689 41.1156 20.83C41.0511 20.9589 41.0511 21.0717 41.1156 21.1683C41.2444 21.3939 41.4861 21.3939 41.8406 21.1683C42.2272 20.9428 42.8394 20.4272 43.6772 19.6217C44.3539 18.9772 44.8694 18.6389 45.2239 18.6067C45.5783 18.5744 46.0133 18.8322 46.5289 19.38C47.9789 20.8944 48.8811 22.2317 49.2356 23.3917C49.4611 24.0039 49.8639 24.2939 50.4439 24.2617C51.0561 24.1972 51.4428 23.8428 51.6039 23.1983C51.7972 22.3606 51.5394 21.5067 50.8306 20.6367C50.1217 19.7667 49.0744 19.0094 47.6889 18.365C46.7867 17.9461 46.3194 17.5917 46.2872 17.3017C46.2872 16.9794 46.69 16.3028 47.4956 15.2717C48.43 14.0472 49.3 13.5478 50.1056 13.7733C50.9111 13.9989 51.91 15.0461 53.1022 16.915C53.5533 17.6239 54.0528 17.9622 54.6006 17.93C55.1483 17.8656 55.4544 17.4628 55.5189 16.7217C55.6156 15.9806 55.2933 15.2394 54.5522 14.4983C53.8111 13.7572 52.7961 13.1772 51.5072 12.7583C50.8306 12.5328 50.4117 12.2911 50.2506 12.0333C50.1217 11.7433 50.1861 11.3406 50.4439 10.825C50.8306 10.0194 51.2172 9.55222 51.6039 9.42333C52.0228 9.29444 53.2472 9.23 55.2772 9.23C55.3417 9.23 55.4544 9.23 55.6156 9.23C57.1622 9.23 58.1289 9.27833 58.5156 9.375C59.0633 9.47167 59.3372 9.74555 59.3372 10.1967C59.305 10.5511 59.0956 11.3406 58.7089 12.565C58.6767 12.6939 58.6444 12.7906 58.6122 12.855C57.0656 17.5272 54.8906 21.7322 52.0872 25.47C49.2839 29.2078 46.0294 32.2528 42.3239 34.605C41.905 34.8628 41.6472 35.04 41.5506 35.1367C41.4861 35.2333 41.5183 35.3622 41.6472 35.5233L41.6956 35.5717ZM77.0756 11.115C77.7522 11.3728 78.2517 11.2761 78.5739 10.825C78.8961 10.3739 78.9767 9.77778 78.8156 9.03667C78.6544 8.26333 78.2517 7.57056 77.6072 6.95833C76.9306 6.31389 76.1411 5.78222 75.2389 5.36333C74.4011 4.94444 73.7728 4.76722 73.3539 4.83167C72.9672 4.89611 73.0317 5.23444 73.5472 5.84667C74.9328 7.45778 75.835 8.92389 76.2539 10.245C76.3828 10.6639 76.6567 10.9539 77.0756 11.115ZM89.5939 45.6733C89.7872 45.8344 90.2706 45.5767 91.0439 44.9C91.8172 44.2556 92.5583 43.45 93.2672 42.4833C94.7172 40.55 95.7806 38.6811 96.4572 36.8767C97.1661 34.8789 97.6656 32.285 97.9556 29.095C98.2133 26.195 98.3583 21.8772 98.3906 16.1417C98.3906 15.7228 98.3906 15.1267 98.3906 14.3533C98.4228 10.2289 98.455 7.82833 98.4872 7.15167C98.5517 6.44278 98.7128 6.04 98.9706 5.94333L99.1156 5.895C99.4056 5.76611 102.95 5.71778 109.749 5.75C116.548 5.75 120.092 5.81444 120.382 5.94333C120.672 6.07222 120.833 6.36222 120.866 6.81333C120.93 7.26444 120.994 8.795 121.059 11.405C121.059 11.8883 121.059 12.275 121.059 12.565C121.123 20.8461 121.526 27.2261 122.267 31.705C123.008 36.1517 124.233 39.5672 125.941 41.9517C126.875 43.2728 127.954 44.2717 129.179 44.9483C130.307 45.5928 131.177 45.7539 131.789 45.4317C132.433 45.1094 132.498 44.3361 131.982 43.1117C131.724 42.5317 131.596 41.9033 131.596 41.2267C131.563 40.5178 131.628 39.2289 131.789 37.36C131.95 35.3944 131.998 34.3794 131.934 34.315C131.708 34.0894 131.483 34.46 131.257 35.4267C130.742 37.6178 130.307 38.955 129.952 39.4383C129.598 39.9217 129.114 39.8894 128.502 39.3417C125.538 36.4739 124.056 27.9994 124.056 13.9183C124.088 11.3083 124.12 9.64889 124.152 8.94C124.184 7.97333 124.297 7.31278 124.491 6.95833C124.619 6.73278 124.926 6.49111 125.409 6.23333C125.957 5.97556 126.166 5.68556 126.037 5.36333C125.941 5.00889 125.393 4.36444 124.394 3.43C123.588 2.62444 123.057 2.18944 122.799 2.125C122.541 2.06056 122.219 2.28611 121.832 2.80167C121.252 3.575 120.785 4.04222 120.431 4.20333C120.173 4.33222 116.564 4.41278 109.604 4.445C102.676 4.445 99.0189 4.38056 98.6322 4.25167C98.5033 4.21944 98.165 4.07444 97.6172 3.81667C97.1983 3.65556 96.8761 3.52667 96.6506 3.43C95.7806 3.01111 95.2489 2.80167 95.0556 2.80167C94.8622 2.76944 94.7978 2.88222 94.8622 3.14C95.12 4.78333 95.2811 8.71444 95.3456 14.9333C95.4422 21.1522 95.3939 25.5183 95.2006 28.0317C94.6528 35.2172 92.9772 40.6789 90.1739 44.4167C89.8194 44.9 89.61 45.2061 89.5456 45.335C89.4811 45.4639 89.4972 45.5767 89.5939 45.6733ZM98.0522 39.5833C98.2778 39.8411 98.6967 39.7283 99.3089 39.245C100.984 37.9239 102.692 36.2967 104.432 34.3633C106.204 32.3978 107.735 30.4483 109.024 28.515C109.668 27.5161 110.184 27.0167 110.571 27.0167C110.925 26.9844 111.376 27.4517 111.924 28.4183C113.309 30.7706 114.389 33.0261 115.162 35.185C115.484 36.055 115.839 36.635 116.226 36.925C116.644 37.1828 117.063 37.1022 117.482 36.6833C118.127 35.9744 118.127 34.6211 117.482 32.6233C116.838 30.5933 115.629 28.2572 113.857 25.615C113.793 25.5183 113.696 25.3733 113.567 25.18C112.923 24.2456 112.601 23.6011 112.601 23.2467C112.601 22.8922 112.891 22.1189 113.471 20.9267C113.567 20.7011 113.648 20.54 113.712 20.4433C114.679 18.4456 115.549 16.4478 116.322 14.45C116.644 13.5478 116.918 12.9356 117.144 12.6133C117.369 12.2911 117.659 12.0656 118.014 11.9367C118.497 11.8078 118.529 11.5822 118.111 11.26C117.724 10.9378 116.838 10.5028 115.452 9.955C115.388 9.92278 115.307 9.89055 115.211 9.85833C114.663 9.63278 114.324 9.55222 114.196 9.61667C114.099 9.64889 114.002 9.89055 113.906 10.3417V10.4383C113.583 12.2428 113.036 14.2406 112.262 16.4317C111.489 18.6228 110.925 19.8472 110.571 20.105C110.281 20.2983 109.991 20.2983 109.701 20.105C109.443 19.8794 108.653 19.1061 107.332 17.785C107.139 17.5917 106.994 17.4467 106.897 17.35C103.739 14.1278 102.016 12.5167 101.726 12.5167C101.339 12.5167 101.194 12.6456 101.291 12.9033C101.387 13.1289 101.758 13.6444 102.402 14.45C106.623 19.7989 108.734 22.9083 108.734 23.7783C108.734 24.5839 107.638 26.63 105.447 29.9167C103.256 33.2033 101.242 35.8133 99.4056 37.7467C99.2444 37.9078 98.9867 38.1817 98.6322 38.5683C98.4711 38.7617 98.3583 38.8906 98.2939 38.955C98.1006 39.1483 97.9878 39.2772 97.9556 39.3417C97.9556 39.3739 97.9878 39.4544 98.0522 39.5833Z" fill="#333333"/>
</g>
<defs>
<clipPath id="clip0">
<rect width="145" height="48.3333" fill="white"/>
</clipPath>
</defs>
</svg>
